<svg xmlns="http://www.w3.org/2000/svg" xmlns:xlink="http://www.w3.org/1999/xlink" version="1.1" id="Capa_1" x="0px" y="0px" enable-background="new 0 0 841.89 595.28" xml:space="preserve" viewBox="11.52 156.49 818.86 282.29">
<g>
	<path fill="#FDA459" d="M264.759,301.046c0-12.328-8.73-22.649-20.333-25.121v-38.99l-82.67-47.729   c0.636-2.235,0.999-4.586,0.999-7.021c0-14.166-11.525-25.69-25.693-25.69c-14.166,0-25.689,11.524-25.689,25.69   c0,2.437,0.363,4.787,1,7.022l-57.23,33.041c-4.601-4.331-10.775-7.007-17.578-7.007c-14.166,0-25.691,11.525-25.691,25.693   c0,11.422,7.498,21.116,17.828,24.446L29.7,332.321c-10.514,3.22-18.184,13.012-18.184,24.565   c0,14.166,11.525,25.691,25.691,25.691c6.86,0,13.086-2.719,17.699-7.116l56.929,32.865c-0.292,1.547-0.461,3.139-0.461,4.769   c0,14.166,11.523,25.691,25.689,25.691c14.168,0,25.693-11.525,25.693-25.691c0-1.63-0.169-3.22-0.461-4.767l82.132-47.419v-34.745   C256.029,323.694,264.759,313.374,264.759,301.046z M41.177,331.535l0.002-65.197c0.965-0.137,1.912-0.327,2.841-0.569   l18.904,32.772l-20.158,33.278C42.243,331.703,41.71,331.618,41.177,331.535z M54.209,260.466c1.189-1.016,2.291-2.129,3.278-3.342   l23.056,12.332L69.71,287.338L54.209,260.466z M90.679,274.878l21.621,11.564c-0.585,2.151-0.926,4.403-0.926,6.738   c0,12.19,8.542,22.404,19.95,25.021v69.874c-1.023,0.234-2.018,0.536-2.991,0.891l-52.076-90.28L90.679,274.878z M131.412,268.137   c-5.408,1.22-10.166,4.148-13.69,8.189l-21.087-11.28l34.778-57.411V268.137z M150.601,391.303   c-2.373-1.479-4.996-2.585-7.799-3.228v-69.874c8.905-2.041,16.064-8.703,18.776-17.335l52.341,5.421   c0.786,3.778,2.423,7.236,4.673,10.208L150.601,391.303z M232.948,243.563v32.561c-9.2,2.262-16.449,9.475-18.764,18.653   l-51.737-5.359c-1.545-10.455-9.391-18.866-19.559-21.236v-60.997c5.238-1.221,9.853-4.044,13.32-7.928L232.948,243.563z    M121.194,202.348l-34.696,57.276L62.55,246.813c0.445-1.892,0.706-3.854,0.706-5.88c0-3.22-0.621-6.289-1.706-9.131l56.37-32.546   C118.921,200.379,120.012,201.415,121.194,202.348z M61.246,365.869c1.05-2.802,1.652-5.818,1.652-8.982   c0-8.133-3.81-15.382-9.727-20.093l16.299-26.905l49.206,85.302c-0.784,0.806-1.503,1.672-2.178,2.574L61.246,365.869z    M163.109,394.604l64.27-70.711c1.75,0.898,3.615,1.594,5.569,2.074v28.314L163.109,394.604z"/>
	<g>
		<g>
			<path fill="#65748A" d="M341.144,318.093l16.294,17.27H343.29l-11.903-12.878c-3.025,0.877-6.245,1.269-9.66,1.269     c-19.124,0-34.638-14.345-34.638-34.735c0-20.297,15.514-34.639,34.638-34.639c19.319,0,34.639,14.342,34.639,34.639     C356.365,301.799,350.413,312.141,341.144,318.093z M321.727,314.093c13.465,0,23.222-9.758,23.222-25.075     c0-15.32-9.757-24.882-23.222-24.882c-13.465,0-23.222,9.562-23.222,24.882C298.504,304.335,308.261,314.093,321.727,314.093z"/>
			<path fill="#65748A" d="M416.274,323.069h-11.123v-6.44c-3.513,4.587-9.562,7.221-15.904,7.221     c-12.587,0-22.148-7.904-22.148-22.93v-31.612h11.025v29.955c0,9.854,5.366,14.927,13.465,14.927     c8.195,0,13.562-5.073,13.562-14.927v-29.955h11.123V323.069z"/>
			<path fill="#65748A" d="M452.571,268.429c9.074,0,15.32,4.293,18.635,8.685v-7.806h11.224v53.762h-11.224v-8.001     c-3.413,4.585-9.854,8.88-18.83,8.88c-13.952,0-25.173-11.416-25.173-28.005C427.203,279.357,438.424,268.429,452.571,268.429z      M454.914,278.089c-8.295,0-16.296,6.245-16.296,17.854c0,11.612,8.001,18.345,16.296,18.345c8.391,0,16.292-6.537,16.292-18.148     C471.206,284.626,463.305,278.089,454.914,278.089z"/>
			<path fill="#65748A" d="M535.217,293.018c0-9.855-5.367-14.929-13.465-14.929c-8.196,0-13.562,5.073-13.562,14.929v30.052     h-11.125v-53.762h11.125v6.146c3.608-4.39,9.561-7.025,16.001-7.025c12.586,0,22.051,7.904,22.051,22.93v31.711h-11.025V293.018z     "/>
			<path fill="#65748A" d="M562.147,278.382h-6.344v-9.074h6.344v-13.368h11.219v13.368h13.074v9.074h-13.074v29.759     c0,4,1.561,5.659,6.246,5.659h6.828v9.27h-8.779c-9.563,0-15.514-4.001-15.514-14.929V278.382z"/>
			<path fill="#65748A" d="M626.545,268.429c14.243,0,25.269,10.929,25.269,27.515c0,16.589-11.122,28.005-25.269,28.005     c-8.88,0-15.224-4-18.735-8.685v7.806h-11.123v-72.203h11.123v26.442C611.321,272.429,618.056,268.429,626.545,268.429z      M624.105,278.089c-8.296,0-16.296,6.537-16.296,18.051c0,11.611,8,18.148,16.296,18.148c8.39,0,16.391-6.732,16.391-18.345     C640.496,284.334,632.495,278.089,624.105,278.089z"/>
			<path fill="#65748A" d="M684.502,268.429c9.074,0,15.32,4.293,18.636,8.685v-7.806h11.223v53.762h-11.223v-8.001     c-3.414,4.585-9.854,8.88-18.831,8.88c-13.951,0-25.174-11.416-25.174-28.005C659.133,279.357,670.355,268.429,684.502,268.429z      M686.846,278.089c-8.296,0-16.296,6.245-16.296,17.854c0,11.612,8,18.345,16.296,18.345c8.39,0,16.292-6.537,16.292-18.148     C703.138,284.626,695.235,278.089,686.846,278.089z"/>
			<path fill="#65748A" d="M748.511,323.948c-12.878,0-21.954-7.611-22.441-17.369h11.513c0.39,4.392,4.587,8.001,10.733,8.001     c6.44,0,9.855-2.731,9.855-6.439c0-10.537-31.225-4.488-31.225-24.198c0-8.586,8.001-15.514,20.688-15.514     c12.194,0,20.195,6.537,20.78,17.27h-11.122c-0.391-4.682-4-7.901-10.05-7.901c-5.952,0-9.073,2.439-9.073,6.049     c0,10.83,30.344,4.78,30.931,24.197C769.1,317.117,761.195,323.948,748.511,323.948z"/>
			<path fill="#65748A" d="M804.225,323.948c-15.417,0-26.832-10.929-26.832-27.809c0-16.879,10.927-27.711,26.832-27.711     c15.319,0,26.149,10.636,26.149,26.442c0,1.854-0.099,3.611-0.39,5.464h-41.078c0.78,8.88,7.123,14.245,15.318,14.245     c6.831,0,10.636-3.316,12.685-7.513h12.001C825.886,316.434,817.396,323.948,804.225,323.948z M789.005,291.358h29.757     c-0.193-8.293-6.73-13.562-15.025-13.562C796.224,277.797,790.175,282.87,789.005,291.358z"/>
		</g>
	</g>
</g>
</svg>